<?xml version="1.0" encoding="utf-8"?>
<!-- Generator: Adobe Illustrator 24.2.1, SVG Export Plug-In . SVG Version: 6.00 Build 0)  -->
<svg version="1.1" id="Layer_1" xmlns="http://www.w3.org/2000/svg" xmlns:xlink="http://www.w3.org/1999/xlink" x="0px" y="0px"
	 viewBox="0 0 788 444" style="enable-background:new 0 0 788 444;" xml:space="preserve">
<style type="text/css">
	.st0{fill:#FFFFFF;}
	.st1{clip-path:url(#SVGID_2_);}
	.st2{clip-path:url(#SVGID_4_);}
	.st3{clip-path:url(#SVGID_6_);}
	.st4{clip-path:url(#SVGID_8_);}
	.st5{clip-path:url(#SVGID_10_);fill:#EE3425;}
	.st6{clip-path:url(#SVGID_12_);fill:#EE3425;}
	.st7{clip-path:url(#SVGID_14_);fill:#EE3425;}
	.st8{clip-path:url(#SVGID_16_);fill:#EE3425;}
	.st9{clip-path:url(#SVGID_18_);}
	.st10{clip-path:url(#SVGID_20_);fill:#EE3425;}
</style>
<rect class="st0" width="788" height="444"/>
<g id="Artwork_8_1_">
	<g>
		<g>
			<defs>
				<rect id="SVGID_1_" x="89.4" y="154.5" width="609.3" height="185.1"/>
			</defs>
			<clipPath id="SVGID_2_">
				<use xlink:href="#SVGID_1_"  style="overflow:visible;"/>
			</clipPath>
			<g class="st1">
				<g>
					<defs>
						<rect id="SVGID_3_" x="89.4" y="154.5" width="609.3" height="185.1"/>
					</defs>
					<clipPath id="SVGID_4_">
						<use xlink:href="#SVGID_3_"  style="overflow:visible;"/>
					</clipPath>
					<path class="st2" d="M217.5,249c0,3.8-0.3,6.1-0.8,7s-1.6,1.3-3.3,1.3c-1.8,0-3-0.6-3.6-1.7c-0.6-1.1-0.9-3.7-0.9-7.6
						c0-3.4,0.4-6,1-7.8c0.7-1.8,3.2-4.1,7.5-6.8V249H217.5z M208.9,215.1c0-4.3,0.2-6.9,0.7-7.9c0.4-1,1.6-1.5,3.4-1.5
						c1.6,0,2.7,0.6,3.4,1.8s1,3.8,1,7.7c0,3.2-0.3,5.3-0.9,6.3c-0.6,1-5.4,3-14.4,6c-8.4,2.8-13.7,5.2-15.8,7.2
						c-2.1,2.1-3.2,5.9-3.2,11.5v6.2c0,7.7,2,12.6,6,14.9c4,2.3,8.4,3.4,13.1,3.4c3.7,0,6.8-0.7,9.4-2c2.6-1.3,4.8-3.4,6.5-6.1v6.8
						h26.7v-38c0-12.5-0.5-20.8-1.4-24.8s-3.8-7.4-8.5-10.1c-4.7-2.8-11.7-4.1-20.9-4.1c-7.7,0-14,1.2-18.8,3.6
						c-4.8,2.4-8,5.3-9.7,8.4c-1.6,3.2-2.4,5.7-2.4,11.6v3.4h25.8L208.9,215.1L208.9,215.1z"/>
				</g>
				<g>
					<defs>
						<rect id="SVGID_5_" x="89.4" y="154.5" width="609.3" height="185.1"/>
					</defs>
					<clipPath id="SVGID_6_">
						<use xlink:href="#SVGID_5_"  style="overflow:visible;"/>
					</clipPath>
					<path class="st3" d="M282,193.7v7.1c2.1-2.9,4.7-5,7.6-6.5c2.9-1.4,6.3-2.1,10.1-2.1c7.3,0,13.1,2.9,17.3,8.6
						c2.3-2.9,4.9-5,7.8-6.5c2.9-1.4,6.1-2.1,9.6-2.1c4.7,0,8.5,0.9,11.5,2.9c3.1,1.9,5,4.2,5.9,7c0.8,2.8,1.3,7.2,1.3,13.5v53.8
						h-26.7V220c0-6.4-0.3-10.4-0.8-12s-1.7-2.3-3.6-2.3s-3.2,0.8-3.7,2.3c-0.6,1.5-0.8,5.5-0.8,12v49.4h-26.7v-48.1
						c0-7.4-0.2-11.8-0.7-13.3c-0.4-1.5-1.6-2.2-3.6-2.2c-1.2,0-2.3,0.4-3.1,1.2c-0.9,0.8-1.3,1.7-1.4,2.9c-0.1,1.1-0.1,3.5-0.1,7.2
						v52.5h-26.7v-75.7H282V193.7z"/>
				</g>
				<g>
					<defs>
						<rect id="SVGID_7_" x="89.4" y="154.5" width="609.3" height="185.1"/>
					</defs>
					<clipPath id="SVGID_8_">
						<use xlink:href="#SVGID_7_"  style="overflow:visible;"/>
					</clipPath>
					<path class="st4" d="M389.2,221.2V215c0-4.3,0.2-6.9,0.7-7.8c0.5-1,1.7-1.4,3.6-1.4c1.6,0,2.6,0.6,3.1,1.7
						c0.5,1.1,0.8,3.7,0.8,7.6v6.2h-8.2V221.2z M424.7,222.8c0-7.4-1-13.1-3-17.1c-2-4.1-5.5-7.3-10.5-9.8c-5-2.4-11.3-3.7-19-3.7
						c-6.3,0-11.9,1-16.7,3.1c-4.8,2-8.3,5-10.5,8.8c-2.1,3.8-3.2,9.1-3.2,15.7v22.1c0,5.7,0.5,9.9,1.4,12.9c0.9,3,2.7,5.7,5.1,8.1
						c2.5,2.5,5.9,4.4,10.4,5.8c4.4,1.4,9.5,2.1,15.3,2.1c6,0,10.9-0.7,14.9-2.1s7.2-3.5,9.8-6.4c2.6-2.8,4.2-5.5,4.9-8
						c0.7-2.5,1.1-6.1,1.1-10.8V239h-26v8.8c0,3.7-0.4,6.3-1.1,7.6s-2.1,2-4.2,2c-1.7,0-2.8-0.5-3.4-1.5s-0.9-3.2-0.9-6.6v-16.4
						h35.6L424.7,222.8L424.7,222.8z"/>
				</g>
				<g>
					<defs>
						<rect id="SVGID_9_" x="89.4" y="154.5" width="609.3" height="185.1"/>
					</defs>
					<clipPath id="SVGID_10_">
						<use xlink:href="#SVGID_9_"  style="overflow:visible;"/>
					</clipPath>
					<path class="st5" d="M534.1,181.5v10.3h8.8v9.6h-8.8V248c0,5,0.3,7.8,0.9,8.4c0.6,0.6,3.2,0.8,7.8,0.8v12.2h-11.1
						c-6.3,0-9.2-0.2-11.8-0.6c-2.7-0.4-5-1.4-7.1-3c-2-1.6-3.3-3.4-3.8-5.5c-0.5-2-0.8-6.8-0.8-14.4v-44.6h-5.4v-9.6h5.4v-10.3
						h25.9V181.5z"/>
				</g>
				<g>
					<defs>
						<rect id="SVGID_11_" x="89.4" y="154.5" width="609.3" height="185.1"/>
					</defs>
					<clipPath id="SVGID_12_">
						<use xlink:href="#SVGID_11_"  style="overflow:visible;"/>
					</clipPath>
					<path class="st6" d="M582.9,249.5c0,3.3-0.3,5.4-0.8,6.4s-1.6,1.5-3.3,1.5c-1.6,0-2.7-0.5-3.3-1.6s-0.8-3.4-0.8-7v-34.2
						c0-3.9,0.3-6.3,0.8-7.3c0.6-1,1.7-1.5,3.3-1.5c1.7,0,2.7,0.5,3.3,1.5c0.5,1,0.8,3.4,0.8,7.3V249.5z M609,208.2
						c-0.9-2.6-2.5-5.2-4.9-7.7s-5.8-4.5-10.2-6s-9.7-2.3-15.9-2.3c-7.3,0-13.4,1.2-18.1,3.6c-4.7,2.4-8,5.6-9.8,9.5
						c-1.8,4-2.7,9.5-2.7,16.5v19.4c0,6.4,0.5,11.3,1.5,14.5s2.7,6,5,8.2c2.3,2.3,5.6,3.9,9.8,5s9.3,1.7,15.4,1.7
						c5.4,0,10.3-0.7,14.5-2s7.6-3.3,10.3-6.1c2.7-2.8,4.4-5.7,5.2-8.9c0.8-3.2,1.2-8.2,1.2-15v-18.5
						C610.3,214.9,609.8,210.9,609,208.2"/>
				</g>
				<g>
					<defs>
						<rect id="SVGID_13_" x="89.4" y="154.5" width="609.3" height="185.1"/>
					</defs>
					<clipPath id="SVGID_14_">
						<use xlink:href="#SVGID_13_"  style="overflow:visible;"/>
					</clipPath>
					<path class="st7" d="M493.8,225.6c-3.3-4.2-11.3-9.7-24-16.3c-4.4-2.3-7.1-4.2-8.1-5.8s-1.5-3.9-1.5-7.1c0-2.5,0.4-4.3,1.3-5.5
						s2.2-1.8,3.9-1.8c1.6,0,2.7,0.5,3.4,1.4c0.7,0.9,1,3,1,6.3v7.1h26.5v-3.8c0-7.6-0.8-13-2.5-16.1c-1.7-3.2-5.1-5.8-10.4-7.9
						c-5.2-2.1-11.5-3.1-18.9-3.1c-6.8,0-12.6,0.9-17.3,2.8c-4.8,1.9-8.2,4.5-10.4,7.9c-2.1,3.4-3.2,8.7-3.2,16.1
						c0,5.1,0.8,9.2,2.3,12.5c1.5,3.2,3.4,5.8,5.7,7.7c2.3,1.9,7,4.8,14.1,8.9c7.1,4.1,11.5,7,13.3,8.7c1.8,1.8,2.6,5.4,2.6,11
						c0,2.5-0.5,4.4-1.4,5.8c-0.9,1.3-2.3,2-4.2,2c-1.9,0-3.2-0.5-4-1.5c-0.7-1-1.1-3.3-1.1-7v-6.7h-26.5v3.4
						c0,7.2,0.8,10.7,2.5,14.6s5.2,7.1,10.6,9.6s11.9,3.8,19.6,3.8c7,0,13.1-1.1,18.3-3.3c5.2-2.2,8.8-4.9,10.6-8.1
						c1.8-3.2,2.7-8.2,2.7-15C498.8,236.6,497.1,229.8,493.8,225.6"/>
				</g>
				<g>
					<defs>
						<rect id="SVGID_15_" x="89.4" y="154.5" width="609.3" height="185.1"/>
					</defs>
					<clipPath id="SVGID_16_">
						<use xlink:href="#SVGID_15_"  style="overflow:visible;"/>
					</clipPath>
					<path class="st8" d="M653,248c0,4.1-0.2,6.6-0.6,7.6c-0.4,1-1.5,1.6-3.2,1.6c-1.8,0-2.9-0.6-3.5-1.7c-0.5-1.1-0.8-4-0.8-8.5
						v-31.3c0-4.4,0.2-7.1,0.8-8.3c0.5-1.1,1.7-1.7,3.4-1.7c1.8,0,2.9,0.5,3.3,1.5c0.4,1,0.6,3.8,0.6,8.5V248z M619.7,192.8v95.5
						h25.1v-25.7c2.4,2.6,5,4.6,8,5.9c2.9,1.3,6.1,2,9.5,2c4.3,0,7.9-0.9,10.9-2.6s5-4,6-6.9s1.5-7.8,1.5-14.7v-31.8
						c0-6-0.4-10.2-1.2-12.7s-2.7-4.7-5.8-6.6c-3.1-1.9-6.8-2.9-11.1-2.9c-3.5,0-6.7,0.7-9.7,2s-5.7,3.3-8.1,6v-7.5L619.7,192.8
						L619.7,192.8z"/>
				</g>
				<g>
					<defs>
						<rect id="SVGID_17_" x="89.4" y="154.5" width="609.3" height="185.1"/>
					</defs>
					<clipPath id="SVGID_18_">
						<use xlink:href="#SVGID_17_"  style="overflow:visible;"/>
					</clipPath>
					<path class="st9" d="M173.9,210h-28.6v-8.7c0-5.5-0.3-8.9-0.8-10.3c-0.5-1.4-1.8-2.1-3.9-2.1c-1.8,0-3,0.6-3.6,1.8
						s-0.9,4.2-0.9,9v45.8c0,4.3,0.3,7.1,1,8.5c0.6,1.3,1.9,2,3.8,2c2.1,0,3.5-0.8,4.2-2.3s1.1-4.5,1.1-8.9v-11.3h-5.7v-12.2h33.4
						v49h-18.6l-2.1-6.8c-2,2.9-4.4,5.1-7.4,6.6c-3,1.4-6.5,2.2-10.5,2.2c-4.8,0-9.3-1-13.5-3s-7.4-4.5-9.5-7.5
						c-2.2-3-3.5-6.1-4.1-9.4c-0.5-3.3-0.8-8.2-0.8-14.8v-28.3c0-9.1,0.6-15.8,1.7-19.9c1.1-4.1,4.4-7.9,9.8-11.4
						c5.4-3.4,12.3-5.1,20.8-5.1c8.4,0,15.3,1.5,20.9,4.5c5.5,3,9.1,6.5,10.8,10.6s2.5,10.1,2.5,17.9L173.9,210L173.9,210z"/>
				</g>
				<g>
					<defs>
						<rect id="SVGID_19_" x="89.4" y="154.5" width="609.3" height="185.1"/>
					</defs>
					<clipPath id="SVGID_20_">
						<use xlink:href="#SVGID_19_"  style="overflow:visible;"/>
					</clipPath>
					<path class="st10" d="M685.9,192.5c1.8,0,3.4,1.4,3.4,3.3c0,1.9-1.5,3.4-3.4,3.4c-1.8,0-3.4-1.4-3.4-3.4
						C682.5,193.9,684.1,192.5,685.9,192.5 M685.9,198.7c1.6,0,2.7-1.2,2.7-2.9c0-1.6-1.2-2.8-2.7-2.8c-1.6,0-2.8,1.2-2.8,2.8
						C683.1,197.4,684.3,198.7,685.9,198.7 M684.6,193.9h1.5c0.9,0,1.4,0.4,1.4,1.1c0,0.7-0.4,1-1,1.1l1.1,1.7h-0.7l-1.1-1.7h-0.6
						v1.7h-0.6L684.6,193.9L684.6,193.9z M685.2,195.6h0.6c0.5,0,1,0,1-0.6c0-0.5-0.4-0.6-0.9-0.6h-0.8v1.2H685.2z"/>
				</g>
			</g>
		</g>
	</g>
</g>
</svg>
