<?xml version="1.0" encoding="UTF-8" standalone="no"?>
<svg width="300px" height="200px" viewBox="0 0 300 200" version="1.1" xmlns="http://www.w3.org/2000/svg" xmlns:xlink="http://www.w3.org/1999/xlink">
    <!-- Generator: Sketch 40.3 (33839) - http://www.bohemiancoding.com/sketch -->
    <title>IMG/Client Logo 3x2/sephora</title>
    <desc>Created with Sketch.</desc>
    <defs></defs>
    <g id="Logos" stroke="none" stroke-width="1" fill="none" fill-rule="evenodd">
        <g id="IMG/Client-Logo-3x2/sephora" fill="#1A1818">
            <path d="M55.0298116,98.4879256 C54.3038023,98.124921 53.577793,97.7619163 52.8517836,97.3989117 C50.6283801,96.3098977 48.6772301,95.2208838 49.0856104,92.9521047 C49.6301173,90.1388186 51.5812674,89.5489361 53.033286,89.5489361 C54.3038023,89.5489361 55.846572,90.2295698 56.8448348,90.7287012 C57.480093,91.0463302 57.8884732,91.3185837 57.8884732,91.3185837 L58.6144825,87.7339128 C58.6144825,87.7339128 57.2078395,86.73565 55.846572,86.3726453 C54.4853046,85.9642651 48.8133569,84.9206267 46.0454464,90.0026919 C43.0052824,95.5385128 47.2252115,99.0324326 50.6737557,100.892831 C50.7191313,100.892831 50.7191313,100.938207 50.7645069,100.938207 C53.577793,102.435601 57.0717127,103.751493 56.5272058,106.746282 C56.0280744,109.559568 53.4870418,110.058699 52.0350232,110.058699 C49.993122,110.058699 46.4992022,108.062173 46.4992022,108.062173 L45.2740615,111.873722 C45.2740615,111.873722 46.5899534,112.826609 47.9512208,113.23499 C49.3124883,113.64337 56.2549523,114.777759 59.0682383,109.695694 C62.0630267,104.159873 58.4783558,100.348324 55.0298116,98.4879256 Z M76.6285884,90.63795 L88.6984932,90.63795 L88.6984932,86.7810256 L72.5901617,86.7810256 L72.5901617,112.962736 L88.6984932,112.962736 L88.6984932,109.105812 L76.6285884,109.105812 L76.6285884,101.210461 L85.1138222,101.210461 L85.1138222,97.3535361 L76.6285884,97.3535361 L76.6285884,90.63795 Z M109.843514,86.7810256 L103.218679,86.7810256 L103.218679,112.962736 L106.984853,112.962736 L106.984853,102.163348 L112.929054,102.163348 C112.929054,102.163348 120.098396,102.208723 120.098396,94.1772454 C120.098396,86.3726453 109.843514,86.7810256 109.843514,86.7810256 Z M113.155932,99.3954373 L106.984853,99.3954373 L106.984853,89.8211895 L111.250157,89.8211895 C111.250157,89.8211895 116.831354,89.775814 116.831354,94.6310012 C116.876729,98.7148035 113.155932,99.3954373 113.155932,99.3954373 Z M149.048017,97.035907 L135.526093,97.035907 L135.526093,86.7810256 L131.487667,86.7810256 L131.487667,112.962736 L135.526093,112.962736 L135.526093,100.892831 L149.048017,100.892831 L149.048017,112.962736 L153.086444,112.962736 L153.086444,86.6902744 L149.048017,86.6902744 L149.048017,97.035907 Z M177.997638,86.4633965 C170.556043,86.4633965 164.52109,92.4983489 164.52109,99.9399443 C164.52109,107.38154 170.556043,113.416492 177.997638,113.416492 C185.439233,113.416492 191.474186,107.38154 191.474186,99.9399443 C191.474186,92.4983489 185.439233,86.4633965 177.997638,86.4633965 Z M177.997638,109.514192 C172.73407,109.514192 168.42339,105.248887 168.42339,99.9399443 C168.42339,94.6763768 172.73407,90.3656965 177.997638,90.3656965 C183.261205,90.3656965 187.571886,94.6310012 187.571886,99.9399443 C187.571886,105.248887 183.261205,109.514192 177.997638,109.514192 Z M214.978737,101.074334 C214.978737,101.074334 219.652422,99.9853198 219.652422,93.9049919 C219.652422,86.1457674 210.849559,86.73565 210.849559,86.73565 L203.271837,86.73565 L203.271837,112.917361 L207.03801,112.917361 L207.03801,101.52809 L211.031061,101.52809 L219.107915,112.917361 L223.509346,112.917361 L214.978737,101.074334 Z M206.992635,98.7601791 L206.992635,89.8211895 L211.257939,89.8211895 C211.257939,89.8211895 216.340004,89.775814 216.340004,94.6310012 C216.340004,98.0341698 213.027587,98.7601791 213.027587,98.7601791 L206.992635,98.7601791 Z M245.698006,86.6902744 L242.249462,86.6902744 L232.992843,112.962736 L236.441387,112.962736 L238.664791,106.610155 L249.237301,106.610155 L251.551456,112.962736 L255,112.962736 L245.698006,86.6902744 Z M239.345424,104.477502 L243.111598,91.5908372 L244.019109,91.5908372 L248.602043,104.477502 L239.345424,104.477502 Z" id="path"></path>
        </g>
    </g>
</svg>